M48
;DRILL file {KiCad (5.0.0)} date 10/13/19 01:49:33
;FORMAT={-:-/ absolute / metric / decimal}
FMAT,2
METRIC,TZ
T1C0.400
T2C0.750
T3C0.800
T4C0.900
T5C1.000
T6C1.200
T7C3.200
%
G90
G05
M71
T1
X114.935Y-113.665
X114.935Y-116.205
X114.935Y-118.745
X114.935Y-121.285
X114.935Y-123.825
X114.935Y-126.365
X114.935Y-128.905
X114.935Y-131.445
X114.935Y-133.985
X114.935Y-135.89
X115.062Y-109.474
X115.57Y-74.93
X115.57Y-77.47
X116.586Y-124.968
X117.475Y-135.89
X117.602Y-109.474
X117.856Y-126.746
X118.11Y-64.77
X118.11Y-67.31
X118.11Y-69.85
X118.11Y-72.39
X118.11Y-74.93
X118.11Y-77.47
X118.745Y-130.175
X118.745Y-132.08
X118.872Y-111.76
X119.126Y-125.222
X119.38Y-127.508
X120.015Y-135.89
X120.142Y-109.474
X120.65Y-67.31
X120.65Y-69.85
X120.65Y-69.85
X120.65Y-69.85
X120.65Y-72.39
X120.65Y-74.93
X120.65Y-77.47
X120.65Y-126.746
X121.158Y-133.818
X121.666Y-135.89
X122.174Y-121.666
X122.618Y-124.841
X122.682Y-109.474
X122.936Y-129.032
X122.936Y-131.826
X123.19Y-69.85
X123.19Y-72.39
X125.73Y-72.39
X125.73Y-103.505
X125.73Y-106.045
X125.73Y-108.585
X125.73Y-110.236
X125.919Y-133.315
X128.092Y-58.612
X128.27Y-72.39
X128.905Y-62.23
X129.54Y-103.505
X129.54Y-106.045
X129.54Y-108.585
X129.54Y-110.236
X130.175Y-62.23
X130.175Y-113.03
X130.81Y-57.15
X131.127Y-66.484
X131.284Y-67.882
X131.284Y-70.421
X131.284Y-72.962
X131.445Y-112.395
X131.445Y-114.3
X132.08Y-55.88
X132.08Y-103.505
X132.08Y-106.045
X132.08Y-108.585
X132.207Y-109.791
X132.588Y-115.062
X132.69Y-58.637
X132.69Y-60.387
X132.715Y-54.61
X132.779Y-134.048
X133.35Y-62.865
X133.35Y-64.135
X133.477Y-108.712
X133.858Y-115.062
X133.985Y-53.34
X133.985Y-54.61
X133.985Y-112.395
X134.125Y-119.964
X134.366Y-129.794
X134.366Y-131.572
X134.62Y-61.595
X134.62Y-65.405
X135.164Y-109.819
X135.255Y-52.07
X135.445Y-75.311
X135.89Y-61.595
X135.89Y-65.405
X136.081Y-118.428
X136.093Y-110.82
X136.144Y-131.572
X136.144Y-133.096
X136.334Y-67.882
X136.398Y-127.508
X136.525Y-50.8
X136.525Y-54.61
X136.525Y-112.293
X136.588Y-77.597
X136.652Y-115.062
X136.652Y-117.348
X136.779Y-106.172
X137.16Y-61.595
X137.16Y-62.865
X137.16Y-64.135
X137.16Y-65.405
X137.541Y-133.223
X137.795Y-49.53
X138.684Y-109.728
X138.844Y-129.794
X138.938Y-127.508
X139.065Y-49.53
X139.065Y-49.53
X139.065Y-49.53
X139.065Y-52.07
X139.065Y-54.61
X139.7Y-110.49
X139.7Y-114.046
X139.7Y-115.824
X139.7Y-117.348
X140.113Y-108.458
X140.335Y-121.285
X140.335Y-133.223
X141.478Y-125.222
X141.478Y-127.508
X141.478Y-129.794
X141.478Y-132.334
X141.478Y-135.128
X141.732Y-120.142
X141.732Y-123.19
X142.08Y-65.825
X142.303Y-82.296
X142.381Y-60.387
X142.748Y-121.158
X142.978Y-64.927
X142.978Y-66.723
X143.002Y-77.787
X143.016Y-61.16
X143.383Y-82.233
X143.383Y-106.045
X143.51Y-110.49
X143.51Y-114.046
X143.51Y-117.348
X143.51Y-120.142
X143.51Y-125.222
X143.51Y-127.508
X143.51Y-129.794
X143.51Y-132.334
X143.51Y-135.128
X143.789Y-52.553
X143.789Y-65.608
X143.876Y-64.029
X143.876Y-67.621
X143.878Y-121.45
X144.145Y-54.61
X144.208Y-81.407
X144.272Y-108.712
X144.372Y-58.637
X144.628Y-106.832
X144.774Y-63.131
X144.774Y-68.519
X144.907Y-80.645
X145.034Y-110.998
X145.161Y-114.046
X145.161Y-117.348
X145.161Y-120.167
X145.542Y-121.412
X145.542Y-135.128
X145.641Y-122.809
X145.672Y-62.233
X145.672Y-69.417
X145.796Y-127.508
X145.796Y-129.794
X145.796Y-132.334
X146.57Y-61.335
X146.57Y-70.315
X146.66Y-109.779
X146.71Y-119.761
X146.99Y-77.8
X147.468Y-60.437
X147.468Y-69.417
X147.472Y-108.712
X147.511Y-121.094
X148.082Y-130.282
X148.31Y-119.761
X148.313Y-110.287
X148.366Y-59.539
X148.366Y-68.519
X149.011Y-53.659
X149.098Y-109.372
X149.098Y-118.745
X149.123Y-121.717
X149.264Y-58.641
X149.264Y-67.621
X149.9Y-132.707
X149.91Y-122.428
X149.911Y-108.407
X149.923Y-48.501
X149.923Y-119.825
X150.162Y-59.539
X150.292Y-55.22
X150.685Y-118.745
X150.71Y-109.347
X150.71Y-123.444
X150.724Y-133.274
X150.876Y-128.016
X150.876Y-129.54
X151.06Y-60.437
X151.06Y-65.825
X151.51Y-119.761
X151.536Y-108.458
X151.958Y-61.335
X151.958Y-64.927
X151.981Y-63.398
X152.349Y-123.85
X152.4Y-129.54
X152.756Y-60.249
X152.856Y-62.233
X152.856Y-64.029
X152.857Y-52.019
X152.908Y-104.661
X153.416Y-123.101
X153.577Y-45.537
X153.619Y-53.543
X153.733Y-65.024
X153.759Y-63.144
X153.8Y-134.163
X153.8Y-135.687
X153.822Y-68.555
X153.825Y-132.639
X153.924Y-77.622
X154.254Y-131.318
X154.305Y-73.914
X154.381Y-48.971
X154.559Y-122.225
X154.597Y-65.849
X154.686Y-109.537
X155.08Y-43.784
X155.143Y-52.527
X155.245Y-55.156
X155.385Y-118.745
X155.397Y-68.618
X155.499Y-108.763
X155.793Y-63.353
X155.965Y-61.052
X156.261Y-106.934
X156.464Y-52.984
X156.489Y-56.179
X156.54Y-57.696
X156.591Y-122.225
X157.226Y-106.362
X157.226Y-113.792
X157.302Y-76.632
X157.309Y-70.018
X157.48Y-103.822
X157.543Y-63.353
X157.607Y-112.395
X158.069Y-66.459
X158.242Y-72.019
X158.349Y-70.815
X158.564Y-75.814
X158.801Y-104.676
X158.801Y-106.426
X159.153Y-66.459
X159.309Y-55.474
X159.436Y-50.315
X159.448Y-81.531
X159.512Y-108.698
X159.563Y-48.971
X159.766Y-103.632
X160.26Y-78.564
X160.542Y-67.313
X160.998Y-111.303
X161.147Y-66.459
X161.163Y-79.883
X161.249Y-54.92
X161.544Y-108.698
X161.544Y-131.115
X161.569Y-129.896
X161.579Y-82.302
X161.658Y-120.764
X162.305Y-70.192
X162.56Y-82.105
X162.571Y-67.168
X162.966Y-71.984
X163.068Y-128.778
X163.068Y-130.556
X163.17Y-127.152
X163.363Y-55.753
X163.576Y-82.233
X163.754Y-66.459
X163.754Y-108.698
X163.805Y-75.12
X163.83Y-103.632
X163.83Y-105.41
X163.906Y-68.909
X164.465Y-59.69
X164.592Y-127.254
X164.719Y-82.233
X164.846Y-129.032
X164.909Y-104.584
X165.105Y-78.891
X165.105Y-80.641
X165.326Y-122.936
X165.354Y-51.613
X165.735Y-58.42
X165.735Y-59.69
X165.814Y-52.603
X165.862Y-82.233
X165.862Y-118.11
X165.862Y-119.888
X166.37Y-103.632
X166.37Y-106.934
X166.37Y-110.49
X166.37Y-112.014
X166.37Y-127.254
X167.005Y-58.42
X167.005Y-59.69
X167.259Y-82.233
X167.833Y-120.396
X167.894Y-103.632
X167.894Y-106.934
X167.894Y-110.49
X167.894Y-113.284
X167.894Y-118.11
X167.894Y-122.936
X168.275Y-58.42
X170.003Y-67.822
X170.003Y-69.522
X170.003Y-71.222
X170.421Y-60.897
X170.485Y-74.625
X170.485Y-78.435
X171.26Y-52.654
X171.577Y-61.722
X176.606Y-64.364
X177.228Y-118.364
X178.052Y-62.243
X178.854Y-64.173
X178.939Y-133.248
X179.578Y-113.03
X180.276Y-72.326
X180.733Y-68.581
X180.819Y-104.419
X180.819Y-106.883
X180.848Y-135.248
X182.093Y-68.631
X182.88Y-110.49
X182.88Y-113.538
X184.15Y-135.248
X184.335Y-110.49
X184.399Y-108.712
X184.404Y-113.538
X185.928Y-67.056
X185.928Y-69.088
X185.992Y-71.056
X185.992Y-73.85
X187.135Y-75.565
X187.135Y-78.105
X187.193Y-111.506
X187.198Y-109.474
X187.516Y-129.095
X187.516Y-131.699
X187.693Y-69.276
X188.468Y-135.248
X189.23Y-76.835
X189.23Y-78.105
X189.23Y-109.474
X189.23Y-112.751
X189.865Y-72.39
X189.865Y-73.552
X191.135Y-72.39
X191.135Y-73.552
X191.262Y-109.474
X191.262Y-112.751
X191.428Y-135.248
X191.588Y-128.016
X191.77Y-76.835
X191.77Y-78.105
X192.532Y-126.492
X192.532Y-135.89
X193.294Y-109.474
X193.7Y-112.751
X193.724Y-114.554
X193.724Y-117.602
X193.724Y-120.65
X193.724Y-125.222
X193.724Y-127.762
X193.724Y-130.302
X194.31Y-75.565
X194.31Y-78.105
X194.818Y-133.604
X194.818Y-135.89
X194.92Y-114.554
X194.92Y-117.602
X194.92Y-120.65
X194.92Y-123.698
X194.92Y-125.222
X194.92Y-127.762
X194.92Y-130.302
X195.072Y-109.474
X195.072Y-110.998
X195.072Y-112.776
T2
X191.77Y-115.19
X191.77Y-117.19
X191.77Y-119.19
X191.77Y-121.19
X191.77Y-123.19
X118.11Y-115.57
X118.11Y-117.57
X118.11Y-119.57
X118.11Y-121.57
X118.11Y-123.57
T3
X139.129Y-133.223
X139.808Y-112.293
X140.843Y-69.088
X152.713Y-70.981
X154.775Y-61.277
X155.919Y-71.004
X156.093Y-77.445
X163.093Y-59.192
X170.751Y-132.969
X170.995Y-120.501
X175.543Y-135.416
X175.577Y-125.095
X177.573Y-113.411
T4
X161.885Y-49.635
X164.338Y-50.292
X162.647Y-47.095
X165.1Y-47.752
X145.629Y-50.187
X148.082Y-49.53
X124.442Y-65.296
X126.238Y-63.5
X183.624Y-63.482
X185.42Y-65.278
X144.867Y-47.647
X147.32Y-46.99
X181.846Y-65.26
X183.642Y-67.056
X126.22Y-67.074
X128.016Y-65.278
T5
X192.024Y-130.302
X192.024Y-132.802
T6
X190.024Y-128.702
T7
X129.Y-79.
X181.Y-79.
X181.Y-128.
X129.Y-128.
T0
M30
