G04 #@! TF.GenerationSoftware,KiCad,Pcbnew,(5.0.0)*
G04 #@! TF.CreationDate,2019-10-13T01:49:24+09:00*
G04 #@! TF.ProjectId,MicroNaos,4D6963726F4E616F732E6B696361645F,rev?*
G04 #@! TF.SameCoordinates,Original*
G04 #@! TF.FileFunction,Legend,Bot*
G04 #@! TF.FilePolarity,Positive*
%FSLAX46Y46*%
G04 Gerber Fmt 4.6, Leading zero omitted, Abs format (unit mm)*
G04 Created by KiCad (PCBNEW (5.0.0)) date 10/13/19 01:49:24*
%MOMM*%
%LPD*%
G01*
G04 APERTURE LIST*
%ADD10C,0.150000*%
%ADD11O,2.150000X1.600000*%
%ADD12R,2.150000X1.600000*%
%ADD13R,2.400000X2.100000*%
%ADD14O,2.400000X2.100000*%
%ADD15C,1.600000*%
%ADD16C,2.200000*%
%ADD17C,0.100000*%
%ADD18C,3.600000*%
G04 APERTURE END LIST*
D10*
X189967809Y-134373880D02*
X189967809Y-133373880D01*
X189967809Y-133850071D02*
X189396380Y-133850071D01*
X189396380Y-134373880D02*
X189396380Y-133373880D01*
X188920190Y-134373880D02*
X188920190Y-133707214D01*
X188920190Y-133373880D02*
X188967809Y-133421500D01*
X188920190Y-133469119D01*
X188872571Y-133421500D01*
X188920190Y-133373880D01*
X188920190Y-133469119D01*
X188586857Y-133707214D02*
X188205904Y-133707214D01*
X188444000Y-133373880D02*
X188444000Y-134231023D01*
X188396380Y-134326261D01*
X188301142Y-134373880D01*
X188205904Y-134373880D01*
X187729714Y-134373880D02*
X187824952Y-134326261D01*
X187872571Y-134278642D01*
X187920190Y-134183404D01*
X187920190Y-133897690D01*
X187872571Y-133802452D01*
X187824952Y-133754833D01*
X187729714Y-133707214D01*
X187586857Y-133707214D01*
X187491619Y-133754833D01*
X187443999Y-133802452D01*
X187396380Y-133897690D01*
X187396380Y-134183404D01*
X187443999Y-134278642D01*
X187491619Y-134326261D01*
X187586857Y-134373880D01*
X187729714Y-134373880D01*
X186967809Y-134373880D02*
X186967809Y-133707214D01*
X186967809Y-133802452D02*
X186920190Y-133754833D01*
X186824952Y-133707214D01*
X186682095Y-133707214D01*
X186586857Y-133754833D01*
X186539238Y-133850071D01*
X186539238Y-134373880D01*
X186539238Y-133850071D02*
X186491619Y-133754833D01*
X186396380Y-133707214D01*
X186253523Y-133707214D01*
X186158285Y-133754833D01*
X186110666Y-133850071D01*
X186110666Y-134373880D01*
X185491619Y-134373880D02*
X185586857Y-134326261D01*
X185634476Y-134278642D01*
X185682095Y-134183404D01*
X185682095Y-133897690D01*
X185634476Y-133802452D01*
X185586857Y-133754833D01*
X185491619Y-133707214D01*
X185348761Y-133707214D01*
X185253523Y-133754833D01*
X185205904Y-133802452D01*
X185158285Y-133897690D01*
X185158285Y-134183404D01*
X185205904Y-134278642D01*
X185253523Y-134326261D01*
X185348761Y-134373880D01*
X185491619Y-134373880D01*
X184777333Y-134326261D02*
X184682095Y-134373880D01*
X184491619Y-134373880D01*
X184396380Y-134326261D01*
X184348761Y-134231023D01*
X184348761Y-134183404D01*
X184396380Y-134088166D01*
X184491619Y-134040547D01*
X184634476Y-134040547D01*
X184729714Y-133992928D01*
X184777333Y-133897690D01*
X184777333Y-133850071D01*
X184729714Y-133754833D01*
X184634476Y-133707214D01*
X184491619Y-133707214D01*
X184396380Y-133754833D01*
X183920190Y-134373880D02*
X183920190Y-133707214D01*
X183920190Y-133373880D02*
X183967809Y-133421500D01*
X183920190Y-133469119D01*
X183872571Y-133421500D01*
X183920190Y-133373880D01*
X183920190Y-133469119D01*
%LPC*%
D11*
G04 #@! TO.C,J3*
X191770000Y-123190000D03*
X191770000Y-121190000D03*
X191770000Y-119190000D03*
X191770000Y-117190000D03*
D12*
X191770000Y-115190000D03*
G04 #@! TD*
D13*
G04 #@! TO.C,J1*
X192024000Y-130302000D03*
D14*
X192024000Y-132802000D03*
D15*
X190024000Y-128702000D03*
G04 #@! TD*
D12*
G04 #@! TO.C,J2*
X118110000Y-123570000D03*
D11*
X118110000Y-121570000D03*
X118110000Y-119570000D03*
X118110000Y-117570000D03*
X118110000Y-115570000D03*
G04 #@! TD*
D16*
G04 #@! TO.C,D3*
X181845949Y-65259949D03*
D17*
G36*
X180290314Y-65259949D02*
X181845949Y-63704314D01*
X183401584Y-65259949D01*
X181845949Y-66815584D01*
X180290314Y-65259949D01*
X180290314Y-65259949D01*
G37*
D16*
X183642000Y-67056000D03*
G04 #@! TD*
G04 #@! TO.C,D4*
X148082000Y-49530000D03*
X145628548Y-50187400D03*
D17*
G36*
X144850731Y-51534619D02*
X144281329Y-49409583D01*
X146406365Y-48840181D01*
X146975767Y-50965217D01*
X144850731Y-51534619D01*
X144850731Y-51534619D01*
G37*
G04 #@! TD*
D16*
G04 #@! TO.C,D5*
X185420000Y-65278000D03*
X183623949Y-63481949D03*
D17*
G36*
X182068314Y-63481949D02*
X183623949Y-61926314D01*
X185179584Y-63481949D01*
X183623949Y-65037584D01*
X182068314Y-63481949D01*
X182068314Y-63481949D01*
G37*
G04 #@! TD*
D16*
G04 #@! TO.C,D7*
X128016000Y-65278000D03*
X126219949Y-67074051D03*
D17*
G36*
X126219949Y-68629686D02*
X124664314Y-67074051D01*
X126219949Y-65518416D01*
X127775584Y-67074051D01*
X126219949Y-68629686D01*
X126219949Y-68629686D01*
G37*
G04 #@! TD*
D16*
G04 #@! TO.C,D8*
X161884548Y-49634600D03*
D17*
G36*
X160537329Y-50412417D02*
X161106731Y-48287381D01*
X163231767Y-48856783D01*
X162662365Y-50981819D01*
X160537329Y-50412417D01*
X160537329Y-50412417D01*
G37*
D16*
X164338000Y-50292000D03*
G04 #@! TD*
G04 #@! TO.C,D9*
X162646548Y-47094600D03*
D17*
G36*
X161299329Y-47872417D02*
X161868731Y-45747381D01*
X163993767Y-46316783D01*
X163424365Y-48441819D01*
X161299329Y-47872417D01*
X161299329Y-47872417D01*
G37*
D16*
X165100000Y-47752000D03*
G04 #@! TD*
G04 #@! TO.C,D10*
X144866548Y-47647400D03*
D17*
G36*
X144088731Y-48994619D02*
X143519329Y-46869583D01*
X145644365Y-46300181D01*
X146213767Y-48425217D01*
X144088731Y-48994619D01*
X144088731Y-48994619D01*
G37*
D16*
X147320000Y-46990000D03*
G04 #@! TD*
G04 #@! TO.C,D11*
X126238000Y-63500000D03*
X124441949Y-65296051D03*
D17*
G36*
X124441949Y-66851686D02*
X122886314Y-65296051D01*
X124441949Y-63740416D01*
X125997584Y-65296051D01*
X124441949Y-66851686D01*
X124441949Y-66851686D01*
G37*
G04 #@! TD*
D18*
G04 #@! TO.C,REF\002A\002A*
X181000000Y-79000000D03*
G04 #@! TD*
G04 #@! TO.C,REF\002A\002A*
X129000000Y-79000000D03*
G04 #@! TD*
G04 #@! TO.C,REF\002A\002A*
X129000000Y-128000000D03*
G04 #@! TD*
G04 #@! TO.C,REF\002A\002A*
X181000000Y-128000000D03*
G04 #@! TD*
M02*
