G04 #@! TF.GenerationSoftware,KiCad,Pcbnew,(5.0.0)*
G04 #@! TF.CreationDate,2019-10-13T01:49:24+09:00*
G04 #@! TF.ProjectId,MicroNaos,4D6963726F4E616F732E6B696361645F,rev?*
G04 #@! TF.SameCoordinates,Original*
G04 #@! TF.FileFunction,Soldermask,Bot*
G04 #@! TF.FilePolarity,Negative*
%FSLAX46Y46*%
G04 Gerber Fmt 4.6, Leading zero omitted, Abs format (unit mm)*
G04 Created by KiCad (PCBNEW (5.0.0)) date 10/13/19 01:49:24*
%MOMM*%
%LPD*%
G01*
G04 APERTURE LIST*
%ADD10O,2.150000X1.600000*%
%ADD11R,2.150000X1.600000*%
%ADD12R,2.400000X2.100000*%
%ADD13O,2.400000X2.100000*%
%ADD14C,1.600000*%
%ADD15C,2.200000*%
%ADD16C,0.100000*%
%ADD17C,3.600000*%
G04 APERTURE END LIST*
D10*
G04 #@! TO.C,J3*
X191770000Y-123190000D03*
X191770000Y-121190000D03*
X191770000Y-119190000D03*
X191770000Y-117190000D03*
D11*
X191770000Y-115190000D03*
G04 #@! TD*
D12*
G04 #@! TO.C,J1*
X192024000Y-130302000D03*
D13*
X192024000Y-132802000D03*
D14*
X190024000Y-128702000D03*
G04 #@! TD*
D11*
G04 #@! TO.C,J2*
X118110000Y-123570000D03*
D10*
X118110000Y-121570000D03*
X118110000Y-119570000D03*
X118110000Y-117570000D03*
X118110000Y-115570000D03*
G04 #@! TD*
D15*
G04 #@! TO.C,D3*
X181845949Y-65259949D03*
D16*
G36*
X180290314Y-65259949D02*
X181845949Y-63704314D01*
X183401584Y-65259949D01*
X181845949Y-66815584D01*
X180290314Y-65259949D01*
X180290314Y-65259949D01*
G37*
D15*
X183642000Y-67056000D03*
G04 #@! TD*
G04 #@! TO.C,D4*
X148082000Y-49530000D03*
X145628548Y-50187400D03*
D16*
G36*
X144850731Y-51534619D02*
X144281329Y-49409583D01*
X146406365Y-48840181D01*
X146975767Y-50965217D01*
X144850731Y-51534619D01*
X144850731Y-51534619D01*
G37*
G04 #@! TD*
D15*
G04 #@! TO.C,D5*
X185420000Y-65278000D03*
X183623949Y-63481949D03*
D16*
G36*
X182068314Y-63481949D02*
X183623949Y-61926314D01*
X185179584Y-63481949D01*
X183623949Y-65037584D01*
X182068314Y-63481949D01*
X182068314Y-63481949D01*
G37*
G04 #@! TD*
D15*
G04 #@! TO.C,D7*
X128016000Y-65278000D03*
X126219949Y-67074051D03*
D16*
G36*
X126219949Y-68629686D02*
X124664314Y-67074051D01*
X126219949Y-65518416D01*
X127775584Y-67074051D01*
X126219949Y-68629686D01*
X126219949Y-68629686D01*
G37*
G04 #@! TD*
D15*
G04 #@! TO.C,D8*
X161884548Y-49634600D03*
D16*
G36*
X160537329Y-50412417D02*
X161106731Y-48287381D01*
X163231767Y-48856783D01*
X162662365Y-50981819D01*
X160537329Y-50412417D01*
X160537329Y-50412417D01*
G37*
D15*
X164338000Y-50292000D03*
G04 #@! TD*
G04 #@! TO.C,D9*
X162646548Y-47094600D03*
D16*
G36*
X161299329Y-47872417D02*
X161868731Y-45747381D01*
X163993767Y-46316783D01*
X163424365Y-48441819D01*
X161299329Y-47872417D01*
X161299329Y-47872417D01*
G37*
D15*
X165100000Y-47752000D03*
G04 #@! TD*
G04 #@! TO.C,D10*
X144866548Y-47647400D03*
D16*
G36*
X144088731Y-48994619D02*
X143519329Y-46869583D01*
X145644365Y-46300181D01*
X146213767Y-48425217D01*
X144088731Y-48994619D01*
X144088731Y-48994619D01*
G37*
D15*
X147320000Y-46990000D03*
G04 #@! TD*
G04 #@! TO.C,D11*
X126238000Y-63500000D03*
X124441949Y-65296051D03*
D16*
G36*
X124441949Y-66851686D02*
X122886314Y-65296051D01*
X124441949Y-63740416D01*
X125997584Y-65296051D01*
X124441949Y-66851686D01*
X124441949Y-66851686D01*
G37*
G04 #@! TD*
D17*
G04 #@! TO.C,REF\002A\002A*
X181000000Y-79000000D03*
G04 #@! TD*
G04 #@! TO.C,REF\002A\002A*
X129000000Y-79000000D03*
G04 #@! TD*
G04 #@! TO.C,REF\002A\002A*
X129000000Y-128000000D03*
G04 #@! TD*
G04 #@! TO.C,REF\002A\002A*
X181000000Y-128000000D03*
G04 #@! TD*
M02*
